HIERARCHY
ROOT Hips
{
	OFFSET 0.00 0.00 0.00
	CHANNELS 6 Xposition Yposition Zposition Xrotation Yrotation Zrotation
	JOINT Spine
	{
		OFFSET 0.00000 7.06766 0.00000
		CHANNELS 3 Xrotation Yrotation Zrotation
		JOINT Head
		{
			OFFSET 0.00000 15.03989 0.00000
			CHANNELS 3 Xrotation Yrotation Zrotation
			End Site
			{
				OFFSET 0.00000 4.52755 0.00000
			}
		}
		JOINT LeftShoulder
		{
			OFFSET 0.00000 10.53037 0.00000
			CHANNELS 3 Xrotation Yrotation Zrotation
			JOINT LeftArm
			{
				OFFSET 7.02886 0.00000 0.00000
				CHANNELS 3 Xrotation Yrotation Zrotation
				JOINT LeftForeArm
				{
					OFFSET 10.79770 0.00000 0.00000
					CHANNELS 3 Yrotation Zrotation Xrotation
					JOINT LeftHand
					{
						OFFSET 7.90744 0.00000 0.00000
						CHANNELS 3 Xrotation Yrotation Zrotation
						JOINT LeftHandThumb1
						{
							OFFSET 0.00000 0.00000 0.00000
							CHANNELS 3 Xrotation Zrotation Yrotation
							End Site
							{
								OFFSET 0.00000 0.00000 3.93700
							}
						}
						End Site
						{
							OFFSET 3.93700 0.00000 0.00000
						}
					}
				}
			}
		}
		JOINT RightShoulder
		{
			OFFSET 0.00000 10.53037 0.00000
			CHANNELS 3 Xrotation Yrotation Zrotation
			JOINT RightArm
			{
				OFFSET -7.02886 0.00000 0.00000
				CHANNELS 3 Xrotation Yrotation Zrotation
				JOINT RightForeArm
				{
					OFFSET -10.79770 0.00000 0.00000
					CHANNELS 3 Yrotation Zrotation Xrotation
					JOINT RightHand
					{
						OFFSET -7.90744 0.00000 0.00000
						CHANNELS 3 Xrotation Yrotation Zrotation
						JOINT RightHandThumb1
						{
							OFFSET 0.00000 0.00000 0.00000
							CHANNELS 3 Xrotation Zrotation Yrotation
							End Site
							{
								OFFSET 0.00000 0.00000 3.93700
							}
						}
						End Site
						{
							OFFSET -3.93700 0.00000 0.00000
						}
					}
				}
			}
		}
	}
	JOINT LeftUpLeg
	{
		OFFSET 4.01300 0.00000 0.00000
		CHANNELS 3 Xrotation Yrotation Zrotation
		JOINT LeftLeg
		{
			OFFSET 0.00000 -16.89976 0.00000
			CHANNELS 3 Xrotation Yrotation Zrotation
			JOINT LeftFoot
			{
				OFFSET 0.00000 -17.38918 0.00000
				CHANNELS 3 Xrotation Yrotation Zrotation
				JOINT LeftToeBase
				{
					OFFSET 0.00000 -1.27456 4.75673
					CHANNELS 3 Xrotation Yrotation Zrotation
					End Site
					{
						OFFSET 0.00000 0.00000 2.95275
					}
				}
			}
		}
	}
	JOINT RightUpLeg
	{
		OFFSET -4.01300 0.00000 0.00000
		CHANNELS 3 Xrotation Yrotation Zrotation
		JOINT RightLeg
		{
			OFFSET 0.00000 -16.89976 0.00000
			CHANNELS 3 Xrotation Yrotation Zrotation
			JOINT RightFoot
			{
				OFFSET 0.00000 -17.38918 0.00000
				CHANNELS 3 Xrotation Yrotation Zrotation
				JOINT RightToeBase
				{
					OFFSET 0.00000 -1.27456 4.75673
					CHANNELS 3 Xrotation Yrotation Zrotation
					End Site
					{
						OFFSET 0.00000 0.00000 2.95275
					}
				}
			}
		}
	}
}
MOTION
Frames: 23
Frame Time: 0.008333
 18.6073 36.1270 -20.2602 159.6204 -6.9183 165.8697 -21.0080 -0.1562 2.3090 9.4619 -10.8780 12.1473 -23.1508 7.4720 1.7216 17.2016 9.8101 -65.2179 -2.8448 0.0000 -5.7973 -0.0751 0.9740 4.4112 33.1476 -0.0000 26.2537 18.0849 -9.7083 14.3225 -8.4794 0.7373 63.7242 24.2305 -0.0000 29.1026 0.5543 -7.5049 4.2364 32.8623 0.0000 -24.3270 -14.8178 1.1779 0.8965 -3.4831 0.0000 -0.0000 -19.9424 25.4804 7.5763 23.2945 -0.0000 0.0000 4.3564 5.7538 -11.5842 88.6784 -0.0000 0.0000 39.5700 -28.2430 1.4289 29.3698 -0.0000 0.0000
 18.5971 36.1227 -20.2687 159.7270 -6.7301 165.9336 -20.9656 0.0273 2.3212 9.5282 -10.8217 12.1629 -23.1036 7.4961 1.7225 17.1835 9.7843 -65.1989 -2.8948 0.0000 -5.7895 -0.0758 0.9734 4.4538 33.1476 -0.0000 26.2537 18.1135 -9.7166 14.3789 -8.4921 0.7425 63.6680 24.2260 -0.0000 29.0981 0.5593 -7.5289 4.2609 32.8623 0.0000 -24.3270 -14.6941 1.2571 0.8874 -3.5142 0.0000 0.0000 -19.9879 25.5270 7.7097 23.1397 0.0000 0.0000 4.4016 6.0426 -11.5327 87.4236 -0.0000 -0.0000 39.4528 -27.6967 1.0432 29.5637 -0.0000 0.0000
 18.5859 36.1189 -20.2730 159.8097 -6.5488 166.0003 -20.9264 0.1786 2.3278 9.5601 -10.7312 12.1818 -23.1303 7.4945 1.7339 17.2549 9.8056 -65.1896 -2.9637 0.0000 -5.8279 -0.0742 0.9492 4.4684 33.1476 -0.0000 26.2537 18.1189 -9.7264 14.4105 -8.5012 0.7348 63.6330 24.2364 -0.0000 29.1672 0.5761 -7.5377 4.3832 32.8623 0.0000 -24.3270 -14.6128 1.3562 0.8658 -3.5207 0.0000 -0.0000 -20.0262 25.5376 7.8158 23.0440 -0.0000 0.0000 4.3863 6.2861 -11.4839 86.1008 -0.0000 0.0000 39.2341 -27.2214 0.5674 29.8636 -0.0000 -0.0000
 18.5743 36.1163 -20.2788 159.8727 -6.4174 166.0611 -20.9018 0.2796 2.3232 9.6033 -10.6422 12.1878 -23.1211 7.5137 1.7438 17.2912 9.7803 -65.1866 -3.0214 0.0000 -5.9268 -0.0741 0.9279 4.5682 33.1476 -0.0000 26.2537 18.1197 -9.7386 14.4393 -8.4963 0.7188 63.5934 24.2366 -0.0000 29.1015 0.5552 -7.5481 4.2194 32.8623 0.0000 -24.3270 -14.6089 1.6049 0.8244 -3.4150 0.0000 0.0000 -20.0793 25.4096 7.8248 22.9380 0.0000 -0.0000 4.4043 6.5236 -11.4164 84.6410 0.0000 0.0000 39.2955 -26.7905 0.7473 29.5043 0.0000 0.0000
 18.5623 36.1144 -20.2824 159.9006 -6.3101 166.0923 -20.9046 0.3255 2.3498 9.6262 -10.5681 12.1635 -23.0914 7.5571 1.7592 17.2743 9.7993 -65.1770 -3.0528 0.0000 -5.8553 -0.0749 0.9459 4.5270 33.1476 -0.0000 26.2537 18.1329 -9.7500 14.4424 -8.5169 0.7124 63.5587 24.2077 -0.0000 29.2247 0.5205 -7.5042 3.9789 32.8623 0.0000 -24.3270 -14.6254 1.7071 0.8013 -3.3340 -0.0000 -0.0000 -20.1241 25.3816 7.8642 22.8552 0.0000 -0.0000 4.3546 6.6715 -11.3141 83.1441 0.0000 0.0000 39.2037 -26.4416 0.5988 29.0624 0.0000 0.0000
 18.5486 36.1120 -20.2855 159.9304 -6.2194 166.1313 -20.8964 0.3603 2.3675 9.6359 -10.4926 12.1400 -23.0686 7.5931 1.7764 17.2582 9.7970 -65.1804 -3.0485 0.0000 -5.8267 -0.0732 0.9312 4.4955 33.1476 -0.0000 26.2537 18.1778 -9.7549 14.4422 -8.5599 0.6646 63.5324 24.2620 -0.0000 29.2332 0.5648 -7.6156 4.2540 32.8623 0.0000 -24.3270 -14.6135 1.6938 0.7670 -3.2916 0.0000 0.0000 -20.1650 25.4360 7.9559 22.7074 -0.0000 0.0000 4.3160 6.7851 -11.2280 81.5384 -0.0000 -0.0000 39.1024 -26.1986 0.4375 29.1852 0.0000 -0.0000
 18.5338 36.1082 -20.2855 159.9374 -6.1422 166.1856 -20.8993 0.3894 2.3616 9.6245 -10.4380 12.1130 -23.0405 7.6174 1.8018 17.2331 9.7765 -65.1937 -3.0374 0.0000 -5.8692 -0.0728 0.9274 4.4907 33.1476 -0.0000 26.2537 18.2232 -9.7710 14.4389 -8.6020 0.6684 63.5131 24.2752 -0.0000 29.1449 0.5275 -7.4698 4.0512 32.8623 0.0000 -24.3270 -14.6078 1.5569 0.7099 -3.2815 0.0000 0.0000 -20.1990 25.5960 8.0930 22.5881 0.0000 -0.0000 4.2374 6.8204 -11.1810 79.9184 -0.0000 -0.0000 39.0007 -25.8276 0.0023 28.3087 -0.0000 -0.0000
 18.5200 36.1054 -20.2874 159.9479 -6.1142 166.2119 -20.8833 0.3671 2.3762 9.6040 -10.3770 12.0678 -23.0187 7.6341 1.8032 17.2139 9.7685 -65.1931 -3.0242 0.0000 -5.8877 -0.0719 0.9123 4.5042 33.1476 -0.0000 26.2537 18.2361 -9.7803 14.4265 -8.5905 0.6494 63.4816 24.3310 -0.0000 29.1806 0.5060 -7.4930 3.8744 32.8623 0.0000 -24.3270 -14.6513 1.5469 0.6662 -3.1624 0.0000 0.0000 -20.2584 25.6146 8.1548 22.4089 -0.0000 0.0000 4.1950 6.8184 -11.0834 78.1854 -0.0000 -0.0000 38.8045 -25.5641 -0.2650 27.6431 0.0000 -0.0000
 18.5048 36.1012 -20.2875 159.9569 -6.0837 166.2354 -20.8613 0.3395 2.4020 9.5640 -10.3306 12.0202 -23.0242 7.6427 1.8123 17.2133 9.7532 -65.2036 -2.9906 0.0000 -5.9229 -0.0731 0.9266 4.5139 33.1476 -0.0000 26.2537 18.2628 -9.7850 14.4069 -8.5933 0.6619 63.4458 24.3740 -0.0000 29.1457 0.5004 -7.4903 3.8331 32.8623 0.0000 -24.3270 -14.6551 1.3497 0.6260 -3.1206 0.0000 -0.0000 -20.3229 25.7796 8.3279 22.3402 0.0000 -0.0000 4.1491 6.7718 -11.0083 76.3618 -0.0000 -0.0000 38.5747 -25.3452 -0.4938 27.8146 -0.0000 -0.0000
 18.4893 36.0966 -20.2873 159.9767 -6.0577 166.2566 -20.8155 0.3118 2.4365 9.4962 -10.2815 11.9569 -23.0488 7.6290 1.8041 17.2176 9.7757 -65.1972 -2.9471 0.0000 -5.9299 -0.0727 0.9304 4.4660 33.1476 -0.0000 26.2537 18.2483 -9.7866 14.3847 -8.5574 0.6670 63.3969 24.4370 -0.0000 29.1079 0.4947 -7.4482 3.8107 32.8623 0.0000 -24.3270 -14.6766 1.2445 0.5818 -3.0300 -0.0000 -0.0000 -20.4116 25.8837 8.4882 22.2038 0.0000 -0.0000 4.1107 6.7236 -10.9226 74.4790 -0.0000 -0.0000 38.5025 -25.1388 -0.6240 27.6258 -0.0000 -0.0000
 18.4727 36.0922 -20.2898 160.0077 -6.0265 166.2632 -20.7581 0.2614 2.4990 9.4038 -10.2189 11.8944 -23.0641 7.6404 1.7967 17.2377 9.7762 -65.1955 -2.9173 0.0000 -5.9271 -0.0698 0.9019 4.4256 33.1476 -0.0000 26.2537 18.2993 -9.7894 14.3750 -8.5805 0.7669 63.3235 24.4841 -0.0000 29.0653 0.4947 -7.4595 3.8049 32.8623 0.0000 -24.3270 -14.6959 1.2290 0.5492 -2.9223 0.0000 0.0000 -20.5300 25.8993 8.6401 22.1979 0.0000 -0.0000 4.0794 6.6284 -10.8410 72.5174 -0.0000 -0.0000 38.4428 -24.8199 -0.7782 27.6855 0.0000 0.0000
 18.4559 36.0886 -20.2900 160.0325 -5.9798 166.2450 -20.7056 0.2122 2.6026 9.3044 -10.1483 11.8108 -22.9895 7.6865 1.7670 17.1710 9.7063 -65.1973 -2.9001 0.0000 -6.0373 -0.0710 0.8832 4.5962 33.1476 -0.0000 26.2537 18.3034 -9.7776 14.3456 -8.5916 0.7991 63.2463 24.5064 -0.0000 29.0974 0.4947 -7.4315 3.8191 32.8623 0.0000 -24.3270 -14.7255 1.2006 0.5417 -2.8200 0.0000 -0.0000 -20.6408 25.9457 8.7942 22.0502 -0.0000 0.0000 4.0392 6.5466 -10.7373 70.4972 -0.0000 -0.0000 38.4925 -24.5990 -0.4931 27.4826 0.0000 -0.0000
 18.4387 36.0852 -20.2890 160.0775 -5.9069 166.2531 -20.6253 0.1954 2.6754 9.2040 -10.0610 11.7621 -23.0543 7.6528 1.7607 17.2602 9.7475 -65.2078 -2.9341 0.0000 -6.0910 -0.0737 0.9262 4.5524 33.1476 -0.0000 26.2537 18.2735 -9.7573 14.3480 -8.5898 0.8083 63.1465 24.5410 -0.0000 29.0375 0.5310 -7.4265 4.1010 32.8623 0.0000 -24.3270 -14.7443 1.2564 0.5180 -2.7101 -0.0000 -0.0000 -20.7511 25.9682 8.9010 22.0215 -0.0000 0.0000 4.0138 6.4410 -10.6743 68.4058 -0.0000 -0.0000 38.4534 -24.4429 -0.3541 27.9795 0.0000 0.0000
 18.4225 36.0825 -20.2897 160.1345 -5.8377 166.2576 -20.5313 0.1823 2.7491 9.1025 -10.0021 11.7254 -23.0708 7.6334 1.7568 17.2779 9.7214 -65.2105 -2.9052 0.0000 -6.0617 -0.0744 0.9475 4.4904 33.1476 -0.0000 26.2537 18.2642 -9.7611 14.3702 -8.6211 0.8398 63.0402 24.5555 -0.0000 29.0252 0.5375 -7.3940 4.1692 32.8623 0.0000 -24.3270 -14.7215 1.2247 0.5078 -2.6462 0.0000 0.0000 -20.8475 26.0476 9.0279 21.9760 -0.0000 0.0000 4.0146 6.3096 -10.6106 66.2566 -0.0000 0.0000 38.4888 -24.2453 -0.1398 28.0969 0.0000 0.0000
 18.4075 36.0810 -20.2894 160.1858 -5.7476 166.2599 -20.4495 0.1844 2.8257 9.0169 -9.9351 11.6898 -23.0687 7.6236 1.7547 17.2685 9.6593 -65.2154 -2.8501 0.0000 -6.0728 -0.0730 0.9282 4.4985 33.1476 -0.0000 26.2537 18.2613 -9.7495 14.4033 -8.6527 0.8392 62.9295 24.5871 -0.0000 29.0382 0.5403 -7.3994 4.1880 32.8623 0.0000 -24.3270 -14.6917 1.2220 0.5097 -2.6134 -0.0000 0.0000 -20.9221 26.1167 9.1369 21.9239 -0.0000 -0.0000 4.0237 6.1901 -10.5347 64.0960 -0.0000 0.0000 38.3867 -23.8803 -0.4201 27.7927 -0.0000 -0.0000
 18.3916 36.0803 -20.2919 160.2443 -5.6550 166.2566 -20.3732 0.1842 2.9161 8.9525 -9.8947 11.6413 -23.0480 7.6170 1.7375 17.2338 9.6343 -65.1979 -2.7966 0.0000 -6.0271 -0.0735 0.9327 4.5055 33.1476 -0.0000 26.2537 18.2264 -9.7569 14.4233 -8.6521 0.8095 62.8287 24.6393 -0.0000 29.2283 0.6000 -7.4589 4.6119 32.8623 0.0000 -24.3270 -14.6426 1.2824 0.5229 -2.5987 0.0000 -0.0000 -20.9599 26.1403 9.1407 21.8797 0.0000 -0.0000 4.0632 6.0574 -10.4557 61.8603 -0.0000 -0.0000 38.2201 -23.5749 -0.5234 27.3463 -0.0000 0.0000
 18.3800 36.0815 -20.2919 160.2931 -5.5234 166.2356 -20.3090 0.2064 3.0245 8.8861 -9.8226 11.6071 -23.0717 7.5812 1.7316 17.2720 9.6295 -65.1903 -2.7880 0.0000 -5.9925 -0.0734 0.9426 4.4538 33.1476 -0.0000 26.2537 18.2935 -9.7614 14.4760 -8.7556 0.8335 62.7238 24.6942 -0.0000 29.1745 0.5668 -7.3607 4.4159 32.8623 0.0000 -24.3270 -14.6316 1.5004 0.5684 -2.5543 0.0000 0.0000 -21.0004 26.0273 9.1213 21.9024 -0.0000 -0.0000 4.0844 5.9508 -10.3495 59.6123 -0.0000 -0.0000 37.9070 -23.3738 -0.5555 27.2858 -0.0000 -0.0000
 18.3651 36.0840 -20.2928 160.3434 -5.3989 166.2306 -20.2485 0.2186 3.1195 8.8522 -9.7660 11.5636 -23.0898 7.5507 1.7162 17.2973 9.6413 -65.1770 -2.7574 0.0000 -5.9259 -0.0706 0.8964 4.5016 33.1476 -0.0000 26.2537 18.3308 -9.7425 14.5126 -8.8307 0.8055 62.6290 24.7416 -0.0000 29.1922 0.5647 -7.3070 4.4312 32.8623 0.0000 -24.3270 -14.5198 1.4673 0.6004 -2.6829 0.0000 0.0000 -20.9608 26.1397 9.1313 21.8766 -0.0000 0.0000 4.1359 5.8249 -10.2705 57.3034 0.0000 0.0000 37.7058 -23.3049 -0.6134 27.2632 -0.0000 -0.0000
 18.3528 36.0898 -20.2930 160.3853 -5.2581 166.2071 -20.2006 0.2370 3.2286 8.8280 -9.6743 11.5373 -23.0757 7.5358 1.7105 17.3091 9.5655 -65.1593 -2.7403 0.0000 -5.9944 -0.0789 1.0006 4.5065 33.1476 -0.0000 26.2537 18.3533 -9.7325 14.5500 -8.8740 0.8225 62.5377 24.7819 -0.0000 29.3041 0.5878 -7.3818 4.5658 32.8623 0.0000 -24.3270 -14.4742 1.6267 0.6508 -2.7250 -0.0000 -0.0000 -20.9356 26.1398 9.0463 21.9126 -0.0000 0.0000 4.1529 5.6831 -10.1545 55.0248 -0.0000 -0.0000 37.5633 -23.2829 -0.7061 26.7067 0.0000 0.0000
 18.3392 36.0941 -20.2915 160.4314 -5.1181 166.1837 -20.1386 0.2460 3.3429 8.7905 -9.5842 11.5150 -23.0597 7.5348 1.7071 17.2628 9.5612 -65.1347 -2.6961 0.0000 -6.1081 -0.0794 1.0245 4.4341 33.1476 -0.0000 26.2537 18.3567 -9.7201 14.5582 -8.9003 0.8334 62.4708 24.8125 -0.0000 29.3052 0.5395 -7.3305 4.2207 32.8623 0.0000 -24.3270 -14.3983 1.6737 0.7118 -2.8082 0.0000 0.0000 -20.8931 26.1824 9.0102 21.8990 0.0000 -0.0000 4.1877 5.5320 -10.0508 52.7149 0.0000 -0.0000 37.5798 -23.4101 -0.5709 26.5082 0.0000 0.0000
 18.3273 36.0993 -20.2892 160.4627 -4.9957 166.1846 -20.0900 0.2499 3.4078 8.7550 -9.4798 11.5077 -23.0353 7.5257 1.7132 17.1995 9.5663 -65.0974 -2.6952 0.0000 -6.0972 -0.0750 0.9943 4.3121 33.1476 -0.0000 26.2537 18.3328 -9.7171 14.5560 -8.8699 0.8455 62.4338 24.8837 -0.0000 29.3021 0.5382 -7.4106 4.1656 32.8623 0.0000 -24.3270 -14.3464 1.7342 0.7396 -2.8759 -0.0000 -0.0000 -20.8360 26.2570 8.8854 21.8888 -0.0000 0.0000 4.2112 5.3294 -9.9806 50.4320 -0.0000 -0.0000 37.6808 -23.5760 -0.3530 26.1428 -0.0000 0.0000
 18.3172 36.1054 -20.2856 160.4706 -4.8890 166.1730 -20.0613 0.2308 3.4742 8.7190 -9.3833 11.5075 -23.0421 7.4986 1.7208 17.1976 9.5563 -65.0726 -2.6787 0.0000 -6.1293 -0.0721 0.9527 4.3269 33.1476 -0.0000 26.2537 18.3667 -9.7309 14.5579 -8.9257 0.8331 62.4193 24.9840 -0.0000 29.2956 0.5347 -7.4866 4.0966 32.8623 0.0000 -24.3270 -14.3328 1.8054 0.7747 -2.9187 0.0000 -0.0000 -20.7775 26.2864 8.7765 21.9040 0.0000 -0.0000 4.2189 5.1144 -9.8852 48.2007 -0.0000 0.0000 37.5941 -23.6391 -0.3721 25.7840 -0.0000 -0.0000
 18.3052 36.1109 -20.2807 160.4673 -4.7852 166.1797 -20.0474 0.2124 3.5191 8.6950 -9.2940 11.5001 -23.0547 7.4449 1.7297 17.2365 9.5185 -65.0518 -2.6632 0.0000 -6.2709 -0.0656 0.8644 4.3405 33.1476 -0.0000 26.2537 18.3742 -9.7504 14.5351 -8.9398 0.8473 62.4251 25.0783 -0.0000 29.1945 0.5623 -7.5551 4.2689 32.8623 0.0000 -24.3270 -14.3356 1.8760 0.7843 -2.9546 -0.0000 -0.0000 -20.7101 26.3469 8.6363 21.8863 0.0000 -0.0000 4.2370 4.9113 -9.8156 45.9976 -0.0000 -0.0000 37.4202 -23.6310 -0.4957 25.9429 -0.0000 0.0000
